<mxfile host="app.diagrams.net" modified="2024-05-23T03:19:16.484Z" agent="Mozilla/5.0 (Windows NT 10.0; Win64; x64) AppleWebKit/537.36 (KHTML, like Gecko) Chrome/125.0.0.0 Safari/537.36 Edg/125.0.0.0" etag="QtLFBHvCOoJmzwLMcENY" version="24.4.6" type="device">
  <diagram name="Page-1" id="Sj3IslG6bLDIx8pl-yPv">
    <mxGraphModel dx="2591" dy="1478" grid="1" gridSize="10" guides="1" tooltips="1" connect="1" arrows="1" fold="1" page="1" pageScale="1" pageWidth="850" pageHeight="1100" math="0" shadow="0">
      <root>
        <mxCell id="0" />
        <mxCell id="1" parent="0" />
        <mxCell id="7XNdXQf6ClnIIgcQtCel-3" value="" style="edgeStyle=none;curved=1;rounded=0;orthogonalLoop=1;jettySize=auto;html=1;fontSize=12;startSize=8;endSize=8;" edge="1" parent="1" source="0aYOj4nvYi8IK19oONTu-1" target="7XNdXQf6ClnIIgcQtCel-6">
          <mxGeometry relative="1" as="geometry">
            <mxPoint x="336" y="232" as="targetPoint" />
          </mxGeometry>
        </mxCell>
        <mxCell id="7XNdXQf6ClnIIgcQtCel-5" value="" style="edgeStyle=none;curved=1;rounded=0;orthogonalLoop=1;jettySize=auto;html=1;fontSize=12;startSize=8;endSize=8;" edge="1" parent="1" source="7XNdXQf6ClnIIgcQtCel-4" target="0aYOj4nvYi8IK19oONTu-1">
          <mxGeometry relative="1" as="geometry">
            <mxPoint x="366" y="32" as="targetPoint" />
          </mxGeometry>
        </mxCell>
        <mxCell id="0aYOj4nvYi8IK19oONTu-1" value="将BX指向的内存读取到AH&lt;div&gt;&lt;br&gt;&lt;/div&gt;" style="rounded=1;whiteSpace=wrap;html=1;" parent="1" vertex="1">
          <mxGeometry x="236" y="92" width="200" height="70" as="geometry" />
        </mxCell>
        <mxCell id="7XNdXQf6ClnIIgcQtCel-4" value="将数组地址存入BX&lt;div&gt;将数组长度存入CX&lt;/div&gt;" style="whiteSpace=wrap;html=1;rounded=1;" vertex="1" parent="1">
          <mxGeometry x="236" y="2" width="200" height="60" as="geometry" />
        </mxCell>
        <mxCell id="7XNdXQf6ClnIIgcQtCel-12" value="不是" style="edgeStyle=none;curved=1;rounded=0;orthogonalLoop=1;jettySize=auto;html=1;fontSize=12;startSize=8;endSize=8;" edge="1" parent="1" source="7XNdXQf6ClnIIgcQtCel-6" target="7XNdXQf6ClnIIgcQtCel-11">
          <mxGeometry relative="1" as="geometry" />
        </mxCell>
        <mxCell id="7XNdXQf6ClnIIgcQtCel-17" value="是的" style="edgeStyle=none;curved=1;rounded=0;orthogonalLoop=1;jettySize=auto;html=1;exitX=1;exitY=0.5;exitDx=0;exitDy=0;fontSize=12;startSize=8;endSize=8;entryX=1;entryY=0.25;entryDx=0;entryDy=0;" edge="1" parent="1" source="7XNdXQf6ClnIIgcQtCel-6" target="7XNdXQf6ClnIIgcQtCel-14">
          <mxGeometry x="0.0504" y="-22" relative="1" as="geometry">
            <mxPoint x="526" y="272" as="targetPoint" />
            <Array as="points">
              <mxPoint x="586" y="242" />
            </Array>
            <mxPoint as="offset" />
          </mxGeometry>
        </mxCell>
        <mxCell id="7XNdXQf6ClnIIgcQtCel-6" value="AH是正数吗？" style="rhombus;whiteSpace=wrap;html=1;" vertex="1" parent="1">
          <mxGeometry x="226" y="194" width="220" height="80" as="geometry" />
        </mxCell>
        <mxCell id="7XNdXQf6ClnIIgcQtCel-15" value="" style="edgeStyle=none;curved=1;rounded=0;orthogonalLoop=1;jettySize=auto;html=1;fontSize=12;startSize=8;endSize=8;" edge="1" parent="1" source="7XNdXQf6ClnIIgcQtCel-11" target="7XNdXQf6ClnIIgcQtCel-14">
          <mxGeometry relative="1" as="geometry" />
        </mxCell>
        <mxCell id="7XNdXQf6ClnIIgcQtCel-11" value="将AH取反" style="rounded=1;whiteSpace=wrap;html=1;" vertex="1" parent="1">
          <mxGeometry x="236" y="324" width="200" height="60" as="geometry" />
        </mxCell>
        <mxCell id="7XNdXQf6ClnIIgcQtCel-19" value="" style="edgeStyle=none;curved=1;rounded=0;orthogonalLoop=1;jettySize=auto;html=1;fontSize=12;startSize=8;endSize=8;" edge="1" parent="1" source="7XNdXQf6ClnIIgcQtCel-14" target="7XNdXQf6ClnIIgcQtCel-18">
          <mxGeometry relative="1" as="geometry" />
        </mxCell>
        <mxCell id="7XNdXQf6ClnIIgcQtCel-14" value="对AH右移一位取出最低位&lt;div&gt;&lt;br&gt;&lt;/div&gt;" style="rounded=1;whiteSpace=wrap;html=1;" vertex="1" parent="1">
          <mxGeometry x="236" y="424" width="200" height="60" as="geometry" />
        </mxCell>
        <mxCell id="7XNdXQf6ClnIIgcQtCel-21" value="不是" style="edgeStyle=none;curved=1;rounded=0;orthogonalLoop=1;jettySize=auto;html=1;fontSize=12;startSize=8;endSize=8;" edge="1" parent="1" source="7XNdXQf6ClnIIgcQtCel-18" target="7XNdXQf6ClnIIgcQtCel-20">
          <mxGeometry relative="1" as="geometry" />
        </mxCell>
        <mxCell id="7XNdXQf6ClnIIgcQtCel-28" value="是的" style="edgeStyle=none;curved=1;rounded=0;orthogonalLoop=1;jettySize=auto;html=1;fontSize=12;startSize=8;endSize=8;entryX=1;entryY=0.5;entryDx=0;entryDy=0;" edge="1" parent="1" source="7XNdXQf6ClnIIgcQtCel-18" target="7XNdXQf6ClnIIgcQtCel-22">
          <mxGeometry x="0.0291" y="-16" relative="1" as="geometry">
            <mxPoint x="506" y="672" as="targetPoint" />
            <Array as="points">
              <mxPoint x="566" y="592" />
            </Array>
            <mxPoint as="offset" />
          </mxGeometry>
        </mxCell>
        <mxCell id="7XNdXQf6ClnIIgcQtCel-18" value="最低位是1吗？" style="rhombus;whiteSpace=wrap;html=1;rounded=1;" vertex="1" parent="1">
          <mxGeometry x="226" y="519" width="220" height="80" as="geometry" />
        </mxCell>
        <mxCell id="7XNdXQf6ClnIIgcQtCel-23" value="" style="edgeStyle=none;curved=1;rounded=0;orthogonalLoop=1;jettySize=auto;html=1;fontSize=12;startSize=8;endSize=8;entryX=0;entryY=0.5;entryDx=0;entryDy=0;" edge="1" parent="1" source="7XNdXQf6ClnIIgcQtCel-20" target="7XNdXQf6ClnIIgcQtCel-26">
          <mxGeometry relative="1" as="geometry">
            <mxPoint x="166" y="842" as="targetPoint" />
            <Array as="points">
              <mxPoint x="156" y="752" />
            </Array>
          </mxGeometry>
        </mxCell>
        <mxCell id="7XNdXQf6ClnIIgcQtCel-20" value="偶数计数+1" style="whiteSpace=wrap;html=1;rounded=1;" vertex="1" parent="1">
          <mxGeometry x="246" y="641" width="190" height="60" as="geometry" />
        </mxCell>
        <mxCell id="7XNdXQf6ClnIIgcQtCel-27" value="" style="edgeStyle=none;curved=1;rounded=0;orthogonalLoop=1;jettySize=auto;html=1;fontSize=12;startSize=8;endSize=8;" edge="1" parent="1" source="7XNdXQf6ClnIIgcQtCel-22" target="7XNdXQf6ClnIIgcQtCel-26">
          <mxGeometry relative="1" as="geometry" />
        </mxCell>
        <mxCell id="7XNdXQf6ClnIIgcQtCel-22" value="奇数计数+1" style="whiteSpace=wrap;html=1;rounded=1;" vertex="1" parent="1">
          <mxGeometry x="246" y="738" width="190" height="60" as="geometry" />
        </mxCell>
        <mxCell id="7XNdXQf6ClnIIgcQtCel-33" value="" style="edgeStyle=none;curved=1;rounded=0;orthogonalLoop=1;jettySize=auto;html=1;fontSize=12;startSize=8;endSize=8;" edge="1" parent="1" source="7XNdXQf6ClnIIgcQtCel-26" target="7XNdXQf6ClnIIgcQtCel-32">
          <mxGeometry relative="1" as="geometry" />
        </mxCell>
        <mxCell id="7XNdXQf6ClnIIgcQtCel-26" value="将BX指向下一位" style="whiteSpace=wrap;html=1;rounded=1;" vertex="1" parent="1">
          <mxGeometry x="246" y="839" width="190" height="60" as="geometry" />
        </mxCell>
        <mxCell id="7XNdXQf6ClnIIgcQtCel-34" value="没有" style="edgeStyle=none;curved=1;rounded=0;orthogonalLoop=1;jettySize=auto;html=1;fontSize=12;startSize=8;endSize=8;entryX=1.012;entryY=0.624;entryDx=0;entryDy=0;entryPerimeter=0;exitX=1;exitY=0.5;exitDx=0;exitDy=0;" edge="1" parent="1" source="7XNdXQf6ClnIIgcQtCel-32" target="0aYOj4nvYi8IK19oONTu-1">
          <mxGeometry x="-0.92" y="13" relative="1" as="geometry">
            <mxPoint x="646" y="462" as="targetPoint" />
            <Array as="points">
              <mxPoint x="646" y="982" />
              <mxPoint x="676" y="662" />
              <mxPoint x="676" y="412" />
              <mxPoint x="686" y="152" />
            </Array>
            <mxPoint as="offset" />
          </mxGeometry>
        </mxCell>
        <mxCell id="7XNdXQf6ClnIIgcQtCel-36" value="结束了" style="edgeStyle=none;curved=1;rounded=0;orthogonalLoop=1;jettySize=auto;html=1;fontSize=12;startSize=8;endSize=8;" edge="1" parent="1" source="7XNdXQf6ClnIIgcQtCel-32" target="7XNdXQf6ClnIIgcQtCel-35">
          <mxGeometry relative="1" as="geometry" />
        </mxCell>
        <mxCell id="7XNdXQf6ClnIIgcQtCel-32" value="循环结束了吗？" style="rhombus;whiteSpace=wrap;html=1;rounded=1;" vertex="1" parent="1">
          <mxGeometry x="228.5" y="925" width="215" height="80" as="geometry" />
        </mxCell>
        <mxCell id="7XNdXQf6ClnIIgcQtCel-35" value="退出程序" style="whiteSpace=wrap;html=1;rounded=1;" vertex="1" parent="1">
          <mxGeometry x="276" y="1039" width="120" height="60" as="geometry" />
        </mxCell>
      </root>
    </mxGraphModel>
  </diagram>
</mxfile>
